<?xml version="1.0" encoding="UTF-8"?>
<svg version="1.1" xmlns="http://www.w3.org/2000/svg" width="1024" height="1024">
<path d="M0 0 C337.92 0 675.84 0 1024 0 C1024 337.92 1024 675.84 1024 1024 C686.08 1024 348.16 1024 0 1024 C0 686.08 0 348.16 0 0 Z " fill="#FD7814" transform="translate(0,0)"/>
<path d="M0 0 C0.7744043 0.14002441 1.54880859 0.28004883 2.34667969 0.42431641 C14.6805276 2.75415076 26.65294339 6.28111624 38.625 10 C39.30177795 10.20915039 39.97855591 10.41830078 40.67584229 10.63378906 C49.3158097 13.31849948 57.71476956 16.34499784 66 20 C66.9890332 20.43183594 67.97806641 20.86367187 68.99707031 21.30859375 C90.83877629 30.94772207 111.7007666 41.89461128 131 56 C131.6604834 56.47791992 132.3209668 56.95583984 133.00146484 57.44824219 C154.3634507 72.94986024 174.48206126 90.50420857 190 112 C190.77472656 113.05316406 191.54945313 114.10632813 192.34765625 115.19140625 C209.67526026 139.41438612 222.25268379 167.26488794 217.58544922 197.70361328 C211.45168812 229.24614026 191.3949759 254.096979 171.38964844 278.31054688 C169.48558405 280.62539676 167.61608867 282.96698144 165.75 285.3125 C154.90041599 298.89708331 143.69576711 312.13677882 132 325 C125.79476803 331.86280486 125.79476803 331.86280486 119.6875 338.8125 C116.54805056 342.41921633 113.31176596 345.93012419 110.0625 349.4375 C104.66860103 355.26392089 104.66860103 355.26392089 99.3125 361.125 C98.68988281 361.80820312 98.06726563 362.49140625 97.42578125 363.1953125 C94.91641431 366.3715523 94.53529416 369.77160227 94.59375 373.75390625 C95.81058886 380.48162111 101.45812625 385.72003401 106.22265625 390.265625 C108.67554933 392.65921737 110.87976563 395.23842787 113.1171875 397.83203125 C115.2157532 400.24842951 117.354397 402.62529024 119.5 405 C124.32121275 410.34789986 129.07894027 415.74302215 133.75 421.22265625 C138.49079323 426.78122479 143.24086217 432.30937974 148.1875 437.6875 C152.2006874 442.06552262 155.99625628 446.5749683 159.7265625 451.1953125 C162.07748904 454.09559645 164.47228974 456.95501808 166.875 459.8125 C171.36076422 465.18851589 175.71834866 470.65216063 180.015625 476.1796875 C182.12578805 478.89336286 184.26594844 481.58036851 186.421875 484.2578125 C206.16848012 508.93836092 220.40079682 534.53363868 218 567 C217.2425629 572.49172685 215.72800846 577.74364551 214 583 C213.67854004 583.98347412 213.67854004 583.98347412 213.35058594 584.98681641 C201.15254033 621.3767647 174.7808957 652.38605256 145 676 C143.89003773 676.9209046 142.78205432 677.84419811 141.67578125 678.76953125 C126.38907278 691.45129201 109.5469881 701.7574763 92 711 C91.34112793 711.34869141 90.68225586 711.69738281 90.00341797 712.05664062 C79.42248457 717.61408795 68.51494145 722.39270594 57.47900391 726.97094727 C55.86724523 727.64000014 54.25982342 728.31963222 52.65771484 729.01147461 C45.42140676 732.0572065 37.96035536 734.08223514 30.375 736.0625 C29.71047821 736.23775208 29.04595642 736.41300415 28.36129761 736.59356689 C8.41140093 741.84655825 -11.50465909 745.45960441 -32.1875 745.5 C-32.91623322 745.50201416 -33.64496643 745.50402832 -34.39578247 745.50610352 C-66.80939933 745.446286 -96.48832599 735.36140605 -121 714 C-121.6496875 713.43410156 -122.299375 712.86820313 -122.96875 712.28515625 C-150.53863874 686.4666334 -162.77935716 646.58598382 -164.27796996 609.76632297 C-164.41239552 604.44470797 -164.39634965 599.12447273 -164.3742218 593.80162048 C-164.37697101 591.76661919 -164.3810304 589.73161933 -164.38626546 587.69662291 C-164.39673436 582.17319658 -164.38880106 576.64993487 -164.37751496 571.12651598 C-164.36859987 565.14363298 -164.37713719 559.16076985 -164.38337708 553.17788696 C-164.39227914 542.16047763 -164.38773965 531.14311827 -164.37621326 520.12571368 C-164.36564049 509.94965012 -164.36114243 499.77360509 -164.36250877 489.59753609 C-164.3625928 488.92023871 -164.36267683 488.24294134 -164.36276341 487.5451198 C-164.3631157 484.79524374 -164.36349973 482.04536768 -164.36392899 479.29549163 C-164.36788482 453.55580598 -164.3552177 427.81615308 -164.33440243 402.07647679 C-164.31601722 379.2343259 -164.31022574 356.39220633 -164.31567383 333.55004883 C-164.31602026 332.08188249 -164.31636636 330.61371616 -164.31671212 329.14554983 C-164.31688311 328.41969516 -164.31705411 327.69384049 -164.31723029 326.94599023 C-164.3180839 323.29172399 -164.31890768 319.63745774 -164.31969929 315.98319149 C-164.31985637 315.26217241 -164.32001345 314.54115332 -164.32017529 313.79828517 C-164.32416802 294.67338319 -164.31868657 275.54848421 -164.310188 256.42358404 C-164.30928101 254.36520772 -164.30837536 252.3068314 -164.30747276 250.24845508 C-164.30687166 248.88316489 -164.30626304 247.5178747 -164.30564686 246.15258451 C-164.30143299 236.65243732 -164.30084404 227.15229605 -164.30275235 217.65214822 C-164.30519864 205.4137064 -164.30088167 193.17529381 -164.28554235 180.93686008 C-164.27830961 175.03953233 -164.27421188 169.14224835 -164.27878571 163.24491692 C-164.2828738 157.84246176 -164.27766347 152.44009681 -164.26515963 147.0376553 C-164.26224151 145.08789472 -164.26265023 143.13812558 -164.26680271 141.18836724 C-164.28671658 130.90075029 -163.98029527 121.12784769 -162 111 C-161.77393317 109.67070981 -161.54855465 108.34130215 -161.32421875 107.01171875 C-156.59523145 82.32234336 -147.15732784 59.36354759 -131 40 C-130.2575 39.10410156 -129.515 38.20820313 -128.75 37.28515625 C-114.2857787 20.52215692 -93.37908174 7.76542366 -72 2 C-71.36578125 1.81808105 -70.7315625 1.63616211 -70.078125 1.44873047 C-48.38882058 -4.58004 -22.08702467 -4.05420513 0 0 Z " fill="#FDFDFC" transform="translate(683,120)"/>
<path d="M0 0 C0.67478394 -0.00535767 1.34956787 -0.01071533 2.0447998 -0.01623535 C17.79300275 -0.11097146 32.13303525 1.89713153 46.9375 7.25 C47.97825684 7.62318359 47.97825684 7.62318359 49.04003906 8.00390625 C66.1261283 14.25702213 80.18933676 23.29179641 92.9375 36.25 C93.83210938 37.14589844 94.72671875 38.04179687 95.6484375 38.96484375 C123.83970439 68.50061721 132.27497722 109.1568066 132.20492554 148.64610291 C132.20866945 150.66737317 132.2132739 152.68864198 132.21865618 154.70990855 C132.23081016 160.22368317 132.23063475 165.73739678 132.22826743 171.25118172 C132.22785732 177.21395228 132.23891688 183.17670378 132.24838257 189.13946533 C132.26495215 200.80708716 132.27051631 212.47469382 132.27160732 224.14232563 C132.272529 233.63353269 132.27665908 243.12473324 132.28300858 252.61593819 C132.28480387 255.35523829 132.2865835 258.0945384 132.28835833 260.83383852 C132.28902148 261.85555604 132.28902148 261.85555604 132.28969802 262.89791432 C132.30199489 282.03999197 132.30990033 301.18206736 132.30901146 320.32414913 C132.30896472 321.40519564 132.30896472 321.40519564 132.30891704 322.50808147 C132.30875085 326.16025487 132.30855277 329.81242828 132.30834763 333.46460169 C132.30830774 334.18983769 132.30826785 334.9150737 132.30822675 335.66228655 C132.30814587 337.12888947 132.30806228 338.59549239 132.30797596 340.06209531 C132.30675137 362.86311837 132.32175162 385.66408187 132.34912109 408.46508789 C132.37991358 434.12784243 132.39704926 459.79055784 132.39519465 485.45333201 C132.39504541 488.19546131 132.39494798 490.93759062 132.39488602 493.67971992 C132.39486271 494.35481723 132.3948394 495.02991453 132.39481538 495.72546933 C132.39475789 505.87186484 132.40533847 516.01821315 132.42155075 526.16459465 C132.43982977 537.72110763 132.44405498 549.27752298 132.4305319 560.83404421 C132.42403587 566.72072047 132.42376233 572.60720981 132.4412384 578.49386787 C132.56930801 624.48056438 132.56930801 624.48056438 127.9375 644.25 C127.7774343 644.94971385 127.6173686 645.6494277 127.45245242 646.370345 C122.92124903 665.79558949 114.16439628 687.11753392 100.9375 702.25 C100.2259375 703.06984375 99.514375 703.8896875 98.78125 704.734375 C96.5343347 707.27369709 94.24926671 709.76966696 91.9375 712.25 C90.9475 713.32121094 90.9475 713.32121094 89.9375 714.4140625 C69.2778808 735.99003578 37.62767736 746.52238644 8.33203125 747.5234375 C-10.37869343 747.87546438 -27.68755457 746.06696143 -46.0625 742.25 C-46.86107422 742.09015625 -47.65964844 741.9303125 -48.48242188 741.765625 C-53.08246745 740.82559677 -57.57585979 739.62221269 -62.0625 738.25 C-63.01060547 737.9617334 -63.95871094 737.6734668 -64.93554688 737.37646484 C-101.60515822 726.05268328 -137.91748339 709.32896872 -168.0625 685.25 C-168.87074219 684.6209375 -169.67898437 683.991875 -170.51171875 683.34375 C-173.05628777 681.34415309 -175.5644451 679.30743589 -178.0625 677.25 C-178.58038086 676.82380371 -179.09826172 676.39760742 -179.63183594 675.95849609 C-192.6610611 665.17686931 -204.68609124 653.64258608 -215.0625 640.25 C-216.25939453 638.76113281 -216.25939453 638.76113281 -217.48046875 637.2421875 C-237.51372725 612.13232804 -252.42105805 582.12541117 -250.0625 549.25 C-246.73365651 519.89565284 -226.65978889 496.12214805 -208.3828125 474.2578125 C-205.25346491 470.50657261 -202.24050901 466.6747342 -199.25 462.8125 C-195.43684051 457.90229101 -191.44255349 453.24144309 -187.23046875 448.6640625 C-184.97697008 446.15476128 -182.86088854 443.56758374 -180.75 440.9375 C-176.85799728 436.12174096 -172.7299213 431.59750038 -168.50024414 427.08227539 C-165.42300275 423.77857246 -162.50606833 420.40606887 -159.6875 416.875 C-154.86297144 410.86194707 -149.5852899 405.31187191 -144.3046875 399.703125 C-131.67386513 387.43676512 -131.67386513 387.43676512 -126.79296875 371.55078125 C-127.51348287 365.40030568 -132.79676087 361.39975504 -137 357.3046875 C-139.50208556 354.81207953 -141.79043779 352.17888929 -144.09375 349.50390625 C-146.47750503 346.77488512 -148.92218328 344.10423256 -151.375 341.4375 C-151.84510498 340.92550049 -152.31520996 340.41350098 -152.79956055 339.88598633 C-155.08797703 337.39453682 -157.37992551 334.90647822 -159.67578125 332.421875 C-164.59770969 327.06363253 -169.28830106 321.584843 -173.85546875 315.921875 C-175.97873338 313.3514095 -178.18061849 310.89080637 -180.4375 308.4375 C-184.47595813 304.00641399 -188.16488396 299.37119012 -191.83325195 294.63574219 C-194.99882286 290.56312933 -198.26652876 286.60206056 -201.625 282.6875 C-207.00860768 276.38596308 -212.08989527 269.87900938 -217.0625 263.25 C-217.88935303 262.15413574 -217.88935303 262.15413574 -218.73291016 261.03613281 C-239.39171886 233.60773908 -253.99680923 207.24893545 -249.77392578 171.82958984 C-248.97697531 167.16234838 -247.62419081 162.7078364 -246.0625 158.25 C-245.82112305 157.53295898 -245.57974609 156.81591797 -245.33105469 156.07714844 C-241.53186026 144.9567391 -236.57720318 135.01535516 -230.0625 125.25 C-229.67723145 124.66798828 -229.29196289 124.08597656 -228.89501953 123.48632812 C-215.2288422 103.06390235 -197.59596331 84.13403118 -178.0625 69.25 C-177.09828125 68.48042969 -176.1340625 67.71085937 -175.140625 66.91796875 C-135.00137593 35.03093858 -84.91276263 11.01026601 -34.22363281 2.60839844 C-32.27788461 2.285719 -30.33767747 1.93004358 -28.3984375 1.5703125 C-18.97039346 0.07086323 -9.5214383 0.04212784 0 0 Z " fill="#FDFDFC" transform="translate(374.0625,117.75)"/>
<path d="M0 0 C1.36084233 0.62641948 2.72424099 1.2473086 4.08984375 1.86328125 C18.87609648 8.55996596 32.67962262 16.72297121 46 26 C46.89847656 26.62261719 47.79695312 27.24523437 48.72265625 27.88671875 C56.17807919 33.17524179 63.1324979 38.97980057 70 45 C70.51739746 45.4527832 71.03479492 45.90556641 71.56787109 46.37207031 C88.31766193 61.1272052 102.42232526 77.71786525 112 98 C112.45503906 98.91265625 112.91007812 99.8253125 113.37890625 100.765625 C118.506174 112.98531538 118.22536773 130.32951734 113.5625 142.6875 C110.44907983 150.13794285 105.90672455 156.619665 101 163 C100.2265625 164.02222656 99.453125 165.04445313 98.65625 166.09765625 C97.02435698 168.23554207 95.38519243 170.36444768 93.73046875 172.484375 C91.75282152 175.02030541 89.80187587 177.5747165 87.86328125 180.140625 C81.95312439 187.95450044 75.92636843 195.60209264 69.5390625 203.03125 C67.18901474 205.77899816 64.89863625 208.56395881 62.625 211.375 C54.50216203 221.33669791 46.02621931 230.97311257 37.24560547 240.35791016 C34.12366735 243.71656323 31.18190826 247.1694559 28.3125 250.75 C24.78741771 255.13875944 21.03825559 259.13952278 17 263.05859375 C15.36408898 264.64657769 13.80430344 266.271481 12.25 267.9375 C7.73466457 272.07655748 2.78438518 272.61967549 -3.15234375 272.5078125 C-10.27821373 271.23708123 -15.06089935 265.23375172 -19.40270996 259.83288574 C-20.99721079 258.00320061 -22.65143551 256.50915096 -24.50976562 254.95117188 C-29.33660942 250.78163548 -33.81654836 246.2975678 -38.30552673 241.76963806 C-39.81812332 240.24406023 -41.33401202 238.72181914 -42.85070801 237.20031738 C-46.61395801 233.42383018 -50.37168668 229.64186489 -54.12957764 225.86004639 C-57.31735668 222.65240132 -60.50727042 219.44690705 -63.69993591 216.24412537 C-65.17970556 214.75796311 -66.65638565 213.26878004 -68.13293457 211.77941895 C-72.72651965 207.16924249 -77.36573973 202.70294918 -82.30749512 198.46765137 C-84.52605281 196.54383463 -86.59739729 194.49907095 -88.65625 192.40625 C-89.45160156 191.60316406 -90.24695313 190.80007813 -91.06640625 189.97265625 C-92.68880208 188.32421875 -94.31119792 186.67578125 -95.93359375 185.02734375 C-100.24526518 180.67374359 -104.62215644 176.49695743 -109.27148438 172.50585938 C-111.45519299 170.60344204 -113.48390371 168.57813002 -115.5 166.5 C-118.88241399 163.0711721 -122.38070442 159.87951482 -126.03515625 156.74609375 C-128.81561832 154.27518611 -131.39118218 151.6183306 -134 148.96875 C-135.93891002 147.06013545 -137.93699551 145.27289448 -140 143.5 C-143.42782597 140.55421205 -146.61134817 137.43824653 -149.75 134.1875 C-152.36128944 131.64874637 -155.09727894 129.28337479 -157.84619141 126.89550781 C-161.36511793 123.79859719 -164.77505217 120.58825231 -168.1875 117.375 C-168.87263672 116.73304688 -169.55777344 116.09109375 -170.26367188 115.4296875 C-172.18295967 113.62677616 -174.10060204 111.8238689 -176 110 C-177.33381714 108.86908936 -177.33381714 108.86908936 -178.69458008 107.71533203 C-181.61791216 104.2722208 -181.61967118 102.50147484 -181.59375 98.03125 C-181.5950592 97.36245819 -181.59636841 96.69366638 -181.59771729 96.00460815 C-181.59264026 93.83518186 -181.54857208 91.66885676 -181.5 89.5 C-181.48180039 88.00081737 -181.46389842 86.50163109 -181.44628906 85.00244141 C-181.25661619 73.51041429 -180.35360193 62.26837647 -178 51 C-177.86078125 50.3188916 -177.7215625 49.6377832 -177.578125 48.93603516 C-172.54372642 25.31981125 -160.11876488 3.01359075 -139.640625 -10.4453125 C-129.53155025 -16.39710503 -119.33411631 -19.4856056 -108 -22 C-107.35240723 -22.1757959 -106.70481445 -22.3515918 -106.03759766 -22.53271484 C-73.4044681 -30.01651666 -28.91014892 -14.37573816 0 0 Z " fill="#FD7914" transform="translate(741,182)"/>
<path d="M0 0 C1.07110519 0.00232635 1.07110519 0.00232635 2.16384888 0.00469971 C27.18735627 0.16294143 47.81289126 7.05000914 66.14453125 24.546875 C76.21858551 35.1176775 82.95253177 48.57775453 87 62.5 C87.36399902 63.74595947 87.36399902 63.74595947 87.73535156 65.01708984 C91.70816681 79.39302803 92.47579972 93.42698704 92.5 108.25 C92.50673737 109.55289474 92.50673737 109.55289474 92.51361084 110.8821106 C92.51886179 113.37516024 92.49930396 115.86653027 92.46875 118.359375 C92.46831696 119.10732834 92.46788391 119.85528168 92.46743774 120.62590027 C92.34458197 126.11539147 91.07107947 129.23214414 87.40942383 133.24169922 C86.84763428 133.75748535 86.28584473 134.27327148 85.70703125 134.8046875 C85.07603516 135.38863281 84.44503906 135.97257813 83.79492188 136.57421875 C83.14072266 137.16847656 82.48652344 137.76273438 81.8125 138.375 C81.17763672 138.96152344 80.54277344 139.54804688 79.88867188 140.15234375 C76.62741297 143.15309765 73.32453266 146.09971905 69.98046875 149.0078125 C66.067829 152.41692989 62.27310782 155.93776065 58.5 159.5 C57.09248757 160.8242609 55.68493434 162.14847843 54.27734375 163.47265625 C53.56690918 164.14184082 52.85647461 164.81102539 52.12451172 165.50048828 C49.43074555 168.0357612 46.73127682 170.56490401 44.03125 173.09350586 C41.38028559 175.57648381 38.73139496 178.06166888 36.08251953 180.546875 C34.64645149 181.8937149 33.20989861 183.24003796 31.77294922 184.5859375 C29.51411665 186.70186731 27.25692661 188.81953754 25 190.9375 C24.3181665 191.57550537 23.63633301 192.21351074 22.93383789 192.87084961 C19.56272244 196.03748013 16.24876234 199.24285543 13 202.53515625 C10.47840142 205.07664608 7.90900006 207.48696157 5.1875 209.8125 C-0.15768235 214.41645589 -5.05085663 219.48020265 -10 224.5 C-11.8927387 226.41975944 -13.78906758 228.33587254 -15.6875 230.25 C-16.51636719 231.09046875 -17.34523438 231.9309375 -18.19921875 232.796875 C-20.30090013 234.82527599 -22.41063919 236.72742034 -24.62646484 238.62207031 C-29.57106319 242.91290817 -34.14482236 247.5631003 -38.7370491 252.22301483 C-40.32395246 253.83225609 -41.91505836 255.43723295 -43.50741577 257.04107666 C-48.02853633 261.59551072 -52.54522471 266.15427285 -57.05175781 270.72314453 C-59.82312961 273.5322513 -62.60184056 276.33391822 -65.38532639 279.13101959 C-66.43822488 280.19193725 -67.48834706 281.25561815 -68.53554153 282.32216644 C-69.99938365 283.81261946 -71.47240311 285.2934112 -72.94775391 286.77246094 C-73.78078033 287.61516541 -74.61380676 288.45786987 -75.47207642 289.32611084 C-80.60358417 293.73895352 -85.45396614 295.34799544 -92.125 295.17578125 C-97.74497249 293.85478228 -101.17551267 289.59344785 -105 285.5 C-106.22696023 284.31022038 -107.45589658 283.12247256 -108.6875 281.9375 C-111.60543156 278.97206723 -114.34420865 275.87425774 -117.05859375 272.72265625 C-119.28804061 270.17023117 -121.58001382 267.68112486 -123.875 265.1875 C-127.94588187 260.72424397 -131.80123562 256.13465312 -135.59765625 251.4375 C-138.28948642 248.14602637 -141.04076612 244.91167999 -143.8125 241.6875 C-144.31604004 241.10154053 -144.81958008 240.51558105 -145.33837891 239.91186523 C-147.41594975 237.49681259 -149.49597736 235.08389253 -151.57763672 232.67236328 C-157.86301032 225.38912571 -164.0545631 218.06588227 -170 210.5 C-170.80566406 209.49066406 -171.61132812 208.48132813 -172.44140625 207.44140625 C-196.29328922 177.48972642 -196.29328922 177.48972642 -201 165.5 C-201.26055176 164.85853027 -201.52110352 164.21706055 -201.78955078 163.55615234 C-206.58735664 150.76105539 -205.64688452 134.64967201 -200.67578125 122.046875 C-176.59057847 71.06933626 -123.08040383 33.62299012 -71.13330078 14.64746094 C-69.09246744 13.9208867 -67.04709605 13.20872143 -65 12.5 C-64.3080957 12.25540039 -63.61619141 12.01080078 -62.90332031 11.75878906 C-57.32299524 9.80554829 -51.69460787 8.08821725 -46 6.5 C-45.0001709 6.2205957 -44.0003418 5.94119141 -42.97021484 5.65332031 C-28.55253707 1.76969687 -14.87155765 -0.05411168 0 0 Z " fill="#FD7914" transform="translate(372,159.5)"/>
<path d="M0 0 C8.04018856 2.58213748 13.6829066 10.55255093 18.9921875 16.70703125 C21.41072966 19.46906286 23.88906974 22.17383029 26.375 24.875 C34.91441634 34.16793687 43.26876689 43.59031369 51.45605469 53.19433594 C52.95706257 54.94978411 54.46532825 56.69866486 55.9765625 58.4453125 C66.9915872 71.18950334 77.55331134 84.2557539 87.71875 97.6875 C89.9609791 100.64832301 92.2339699 103.58169693 94.53125 106.5 C106.95802492 122.34721054 112.91568304 135.52810029 111 156 C110.04481393 161.5851852 108.17917308 166.78713038 106 172 C105.27296875 173.75183594 105.27296875 173.75183594 104.53125 175.5390625 C97.57363381 190.64800354 86.49980304 203.17015777 75 215 C74.41847168 215.60730957 73.83694336 216.21461914 73.23779297 216.84033203 C64.71614153 225.72470341 55.93055308 233.72666102 46 241 C45.35337402 241.48033691 44.70674805 241.96067383 44.04052734 242.45556641 C18.96370514 261.01422544 -9.28576754 275.48075122 -39 285 C-40.00232666 285.32170166 -40.00232666 285.32170166 -41.02490234 285.64990234 C-70.13611106 294.72759108 -108.6744891 300.25348838 -136.98339844 286.00146484 C-160.14633779 273.50789109 -172.96721377 253.91608495 -180.5625 229.13671875 C-184.95315058 213.95898657 -186.22133737 198.61943878 -186.5 182.875 C-186.55414062 181.55628906 -186.60828125 180.23757813 -186.6640625 178.87890625 C-186.81643831 168.04933985 -186.81643831 168.04933985 -182.96484375 163.54296875 C-181.67308789 162.32939209 -180.35035734 161.14801418 -179 160 C-177.69641106 158.73074185 -176.39564816 157.45857507 -175.09765625 156.18359375 C-173.75632368 154.93090124 -172.41125146 153.6822012 -171.0625 152.4375 C-170.39798828 151.81681641 -169.73347656 151.19613281 -169.04882812 150.55664062 C-165.66331521 147.40755538 -162.23624531 144.31792745 -158.74609375 141.28515625 C-156.05753898 138.94675412 -153.47659823 136.56504817 -151 134 C-147.79970478 130.74970017 -144.45775424 127.75275755 -141 124.78125 C-138.91662922 122.9257479 -136.95718793 120.98776899 -135 119 C-132.56099918 116.52340379 -130.09257578 114.17969143 -127.4375 111.9375 C-123.24044796 108.33883954 -119.38736667 104.42541283 -115.5 100.5 C-111.13387803 96.09131287 -106.76583702 91.80256847 -102.01953125 87.80078125 C-98.72041397 84.85901517 -95.64647634 81.68895884 -92.56176758 78.5246582 C-89.94832482 75.86503056 -87.27742842 73.35471371 -84.4375 70.9375 C-78.30298653 65.63102922 -72.69777827 59.76541724 -67 54 C-64.73221143 51.70529026 -62.46090292 49.41414624 -60.1875 47.125 C-59.68516846 46.61437012 -59.18283691 46.10374023 -58.6652832 45.57763672 C-55.90105806 42.79493233 -53.06260546 40.15636625 -50.09301758 37.59301758 C-45.98249762 34.03331206 -42.143318 30.25463081 -38.32421875 26.38671875 C-37.63237991 25.69109329 -36.94054108 24.99546783 -36.22773743 24.27876282 C-34.04518289 22.084117 -31.86594013 19.8862294 -29.6875 17.6875 C-26.79844894 14.77186549 -23.90610442 11.85955647 -21.01171875 8.94921875 C-20.3523381 8.28153976 -19.69295746 7.61386078 -19.01359558 6.9259491 C-18.39897964 6.30802994 -17.78436371 5.69011078 -17.15112305 5.0534668 C-16.34459541 4.23908394 -16.34459541 4.23908394 -15.52177429 3.4082489 C-10.75713055 -1.0009492 -6.17082221 -0.68468393 0 0 Z " fill="#FD7915" transform="translate(746,530)"/>
<path d="M0 0 C0.93328125 -0.03738281 1.8665625 -0.07476563 2.828125 -0.11328125 C8.84079998 0.76289732 12.9755288 5.2993321 17.0859375 9.48828125 C17.81050644 10.22065254 17.81050644 10.22065254 18.54971313 10.96781921 C20.07971831 12.51546369 21.60282311 14.06965863 23.125 15.625 C24.64085674 17.16877531 26.15827077 18.71093461 27.67886353 20.25004578 C29.06454839 21.65332686 30.44527917 23.06149495 31.82568359 24.4699707 C33.99065343 26.62501471 36.24872236 28.6341755 38.56298828 30.62768555 C43.03118792 34.5000967 47.18771442 38.64129337 51.34375 42.84375 C52.13471069 43.63849731 52.92567139 44.43324463 53.74060059 45.2520752 C57.09018573 48.61785548 60.4337327 51.98961048 63.77783203 55.36083984 C66.23520939 57.83640227 68.69566058 60.30888083 71.15625 62.78125 C72.27066467 63.90811218 72.27066467 63.90811218 73.40759277 65.05773926 C77.46135017 69.13024182 81.6137163 73.00459211 85.96716309 76.7545166 C88.28781537 78.78248546 90.46310807 80.92944539 92.625 83.125 C93.46546875 83.97320313 94.3059375 84.82140625 95.171875 85.6953125 C96.890625 87.44010417 98.609375 89.18489583 100.328125 90.9296875 C104.7561104 95.39842123 109.23628673 99.703444 114.01269531 103.79785156 C116.33138664 105.81937503 118.4812764 107.98274512 120.625 110.1875 C123.40392917 113.1401549 123.40392917 113.1401549 126.75 115.3125 C126.75 115.9725 126.75 116.6325 126.75 117.3125 C127.56210937 117.63154297 127.56210937 117.63154297 128.390625 117.95703125 C131.60324026 119.80268936 133.95551116 122.35213247 136.5 125 C140.47154492 129.05823622 144.49723363 132.92350005 148.82421875 136.60546875 C151.86524413 139.30106326 154.67067377 142.22521052 157.5234375 145.1171875 C160.19294407 147.74922731 162.9971942 150.1835992 165.83984375 152.625 C168.95498896 155.37703012 171.84414551 158.34301366 174.75 161.3125 C175.70709598 162.27206909 176.66529271 163.23054259 177.625 164.1875 C181.15115418 167.71365418 180.92341862 169.75164163 180.953125 174.65234375 C180.96013931 175.40163147 180.96715363 176.15091919 180.97438049 176.9229126 C180.99201457 179.36533496 180.99824391 181.80751609 181 184.25 C181.00067474 185.07650055 181.00134949 185.9030011 181.00204468 186.75454712 C180.98665864 198.54614966 180.68172556 209.83285172 177.75 221.3125 C177.57839355 222.00714355 177.40678711 222.70178711 177.22998047 223.41748047 C173.38790359 238.69308372 167.89293688 253.08799026 157.75 265.3125 C157.0384375 266.18648437 156.326875 267.06046875 155.59375 267.9609375 C141.90863791 284.00721329 120.82613728 292.8444116 99.98144531 294.53735352 C97.15082896 294.65181587 94.33292246 294.6922401 91.5 294.6875 C89.95397095 294.68508301 89.95397095 294.68508301 88.37670898 294.68261719 C77.24766977 294.50987702 66.60829077 292.61883144 55.75 290.3125 C54.279999 290.02057598 52.80995055 289.72889075 51.33984375 289.4375 C-7.20405786 277.26795108 -68.18894521 238.46774592 -101.47949219 188.46582031 C-111.67464159 172.59989253 -118.25536231 154.24270767 -114.88378906 135.24951172 C-111.36391263 121.17366491 -101.40491878 109.95415617 -92.51806641 98.89208984 C-91.42691547 97.53287795 -90.34355281 96.16742034 -89.26171875 94.80078125 C-79.35696047 82.3084844 -69.13274315 70.07465885 -58.71337891 58.00976562 C-56.73766962 55.71828565 -54.77139061 53.41880283 -52.80493164 51.11938477 C-50.29047962 48.18044158 -47.77052308 45.24623658 -45.25 42.3125 C-44.71729492 41.69197754 -44.18458984 41.07145508 -43.63574219 40.43212891 C-37.10203906 32.82888614 -30.49184112 25.31999512 -23.6796875 17.96484375 C-21.56854603 15.66023755 -19.52471801 13.31766851 -17.5 10.9375 C-12.46641727 5.12765391 -7.942472 0.20615706 0 0 Z " fill="#FD7A15" transform="translate(283.25,529.6875)"/>
<path d="M0 0 C2.98978599 1.17230781 5.10705205 2.82241625 7.42578125 5.01171875 C8.05806641 5.60533203 8.69035156 6.19894531 9.34179688 6.81054688 C9.99212891 7.42994141 10.64246094 8.04933594 11.3125 8.6875 C11.95123047 9.28755859 12.58996094 9.88761719 13.24804688 10.50585938 C16.46341712 13.53879727 19.62748057 16.61375234 22.7421875 19.75 C25.02256952 22.0438773 27.33103433 24.23434252 29.8125 26.3125 C33.02333755 29.07618029 36.02267165 31.98619596 39 35 C41.89591958 37.93118191 44.80242571 40.76403174 47.9375 43.4375 C54.04667363 48.66506524 59.6103989 54.5084109 65.20703125 60.2734375 C67.62367771 62.63262523 70.092571 64.8757452 72.6171875 67.1171875 C78.33996651 72.23779192 83.73611692 77.65777387 89.125 83.125 C90.99951669 85.02656227 92.8776162 86.92433833 94.7578125 88.8203125 C95.5739502 89.64805176 96.39008789 90.47579102 97.23095703 91.32861328 C99.38379757 93.40552927 101.55754627 95.37340496 103.81835938 97.32714844 C108.09507257 101.03827738 112.13329767 104.95468463 116.1484375 108.9453125 C116.8870401 109.67821503 117.6256427 110.41111755 118.3866272 111.16622925 C119.93246894 112.70269642 121.47691775 114.24056621 123.02001953 115.77978516 C125.38258942 118.13255795 127.7556165 120.47445353 130.12890625 122.81640625 C131.63607266 124.31704978 133.1426058 125.81832965 134.6484375 127.3203125 C135.35672699 128.01625519 136.06501648 128.71219788 136.79476929 129.42922974 C142.02794749 134.68639525 144.11781125 138.24427635 144.4609375 145.83984375 C143.12398043 152.10541375 137.62189386 156.59711416 133.1875 160.875 C129.63601778 164.32191295 126.15843276 167.76060122 122.953125 171.53515625 C117.78912721 177.52189757 112.11758796 183.03104202 106.52124023 188.60913086 C104.56704376 190.5579687 102.61824853 192.51209272 100.66992188 194.46679688 C95.28521165 199.85408858 89.92065307 205.17143795 84.11303711 210.10522461 C78.67467085 214.98184628 73.63409196 220.30742367 68.5 225.5 C55.01518798 239.13842258 55.01518798 239.13842258 48.80664062 244.41601562 C45.36598261 247.43263578 42.20256898 250.73488084 39 254 C34.42002115 258.66943156 29.76902847 263.14095888 24.8125 267.41015625 C22.42884357 269.50099282 20.21135675 271.72887685 18 274 C14.32921869 277.7160996 10.56818336 281.23695845 6.59375 284.625 C5.34946955 285.69849686 4.16203041 286.83796959 3 288 C1.35 287.67 -0.3 287.34 -2 287 C-2 192.62 -2 98.24 -2 1 C-1.34 0.67 -0.68 0.34 0 0 Z " fill="#FD7B16" transform="translate(562,348)"/>
<path d="M0 0 C1.98 0.495 1.98 0.495 4 1 C4 95.38 4 189.76 4 287 C2.68 287.33 1.36 287.66 0 288 C-2.19367414 286.36477174 -4.00688249 284.78471772 -5.9375 282.875 C-6.50235107 282.33528564 -7.06720215 281.79557129 -7.64916992 281.23950195 C-12.28592309 276.7823436 -16.83924446 272.23089975 -21.33374023 267.63037109 C-24.07692599 264.83846328 -26.88802279 262.19815219 -29.85546875 259.64453125 C-35.06190579 255.1426222 -39.82477618 250.22395285 -44.64453125 245.31640625 C-45.34964844 244.60355469 -46.05476563 243.89070312 -46.78125 243.15625 C-47.40064453 242.52525391 -48.02003906 241.89425781 -48.65820312 241.24414062 C-50.60979259 239.37393521 -52.59649875 237.61259598 -54.64506531 235.85195923 C-58.93865974 232.1030632 -62.99276141 228.15512544 -67.02075195 224.12451172 C-67.77787979 223.37074249 -68.53500763 222.61697327 -69.31507874 221.84036255 C-71.7921074 219.37275678 -74.26542016 216.90146923 -76.73828125 214.4296875 C-78.468367 212.70281815 -80.19852666 210.97602285 -81.92875671 209.2492981 C-85.54225408 205.64176869 -89.15369856 202.03219833 -92.76391602 198.42138672 C-97.39021061 193.79499013 -102.02336887 189.17553328 -106.65829182 184.55778313 C-110.2278749 180.99930991 -113.79291254 177.43630979 -117.35667992 173.87201309 C-119.06350575 172.166367 -120.77195267 170.46234153 -122.48204994 168.75997543 C-124.8682125 166.3836008 -127.24796719 164.00098554 -129.6262207 161.61669922 C-130.33222412 160.91631531 -131.03822754 160.2159314 -131.765625 159.49432373 C-136.74100823 154.48677798 -140.412769 150.54805701 -140.625 143.1875 C-140.67914063 142.21167969 -140.73328125 141.23585938 -140.7890625 140.23046875 C-138.40495212 130.46977923 -125.57716976 121.43252385 -118.59765625 114.46484375 C-117.19178434 113.05829696 -115.7860608 111.65160185 -114.38047791 110.24476624 C-111.44448232 107.30730236 -108.50670131 104.37163918 -105.56762695 101.43725586 C-101.81765377 97.6929794 -98.07218869 93.94423066 -94.32805729 90.19411373 C-91.42923828 87.2916656 -88.52802245 84.39162265 -85.62609673 81.49228096 C-84.24479405 80.11164105 -82.86422185 78.73026988 -81.48442268 77.34812737 C-68.72513608 64.57192517 -68.72513608 64.57192517 -62.52024841 59.29786682 C-60.58309869 57.64408292 -58.78251045 55.88081981 -57 54.0625 C-56.34 53.39476562 -55.68 52.72703125 -55 52.0390625 C-54.34 51.36617188 -53.68 50.69328125 -53 50 C-48.44010217 45.35104166 -43.80958178 40.90263782 -38.875 36.65234375 C-36.1206138 34.22504091 -33.5614459 31.62761514 -31 29 C-27.08746404 25.03336235 -23.10438804 21.25414849 -18.859375 17.640625 C-16.1174305 15.22126221 -13.59158949 12.6009612 -11.02734375 9.99609375 C-8.3113107 7.32192633 -5.45668648 4.83069543 -2.56640625 2.34765625 C-1.68751602 1.59150381 -0.81982149 0.81982149 0 0 Z " fill="#FD7B15" transform="translate(460,348)"/>
</svg>
